<svg id="Raggruppa_614" data-name="Raggruppa 614" xmlns="http://www.w3.org/2000/svg" width="177.395" height="46.169" viewBox="0 0 177.395 46.169">
  <path id="Tracciato_1394" data-name="Tracciato 1394" d="M951.637,295.412a1.71,1.71,0,0,1,1.771-1.688,1.745,1.745,0,0,1,1.812,1.688v15.853c0,9.511-4.242,11.735-9.471,11.735-3.582,0-6.382-1.565-7.947-5.723-1.523,4.159-4.365,5.723-7.947,5.723-5.353,0-9.429-2.511-9.429-11.735V295.412a1.772,1.772,0,0,1,3.541,0v15.853c0,6.547,2.594,8.4,6.053,8.4,3.088,0,6.012-2.1,6.012-8.4V295.412a1.71,1.71,0,0,1,1.77-1.688,1.771,1.771,0,0,1,1.812,1.688v15.853c0,6.3,2.841,8.4,6.011,8.4,3.129,0,6.012-1.441,6.012-8.4Z" transform="translate(-858.743 -292.308)" fill="#1d1d1b"/>
  <path id="Tracciato_1395" data-name="Tracciato 1395" d="M999.164,326.592c.535,2.676,2.759,4.405,6.547,4.405a9.23,9.23,0,0,0,5.147-1.441,1.374,1.374,0,0,1,1.935,1.4,1.533,1.533,0,0,1-.577,1.235,11.813,11.813,0,0,1-7,1.853c-6.012,0-9.512-3.582-9.512-8.77,0-5.065,3.212-9.059,9.389-9.059,4.612,0,7.865,2.265,7.865,6.136,0,4.035-3.006,5.888-7.371,5.888a10.856,10.856,0,0,1-6.424-1.647m0-2.841a12.136,12.136,0,0,0,5.929,1.441c3.047,0,4.529-1.153,4.529-2.923,0-1.812-1.606-3.088-4.488-3.088-3.747,0-5.518,1.976-5.971,4.57" transform="translate(-896.673 -303.64)" fill="#1d1d1b"/>
  <path id="Tracciato_1396" data-name="Tracciato 1396" d="M1038.714,316.559c0,1.277.329,1.729,1.194,1.77a1.405,1.405,0,0,1,.988,1.607c-.041.741-.576,1.441-1.935,1.441-2.223,0-3.665-1.4-3.665-4.117V292.882a1.716,1.716,0,0,1,3.418,0Z" transform="translate(-916.621 -291.096)" fill="#1d1d1b"/>
  <path id="Tracciato_1397" data-name="Tracciato 1397" d="M1053.487,316.559c0,1.277.329,1.729,1.194,1.77a1.405,1.405,0,0,1,.988,1.607c-.041.741-.577,1.441-1.935,1.441-2.223,0-3.665-1.4-3.665-4.117V292.882a1.716,1.716,0,0,1,3.418,0Z" transform="translate(-924.065 -291.096)" fill="#1d1d1b"/>
  <path id="Tracciato_1398" data-name="Tracciato 1398" d="M1065.424,296.028c0-1.935,6.712-2.553,10.994-2.553,5.106,0,11.612.659,11.612,7.411,0,3.459-1.853,5.353-4.241,6.095,2.717.37,6.423,2.1,6.423,7.041,0,7.782-7.988,8.606-13.052,8.606-3.5,0-11.736-.618-11.736-2.512Zm12.6,9.677c5.27,0,6.382-2.265,6.382-4.612,0-3.664-3.376-4.611-7.864-4.611a38.447,38.447,0,0,0-7.577.741V305.7Zm-9.059,2.964v10.089a38.036,38.036,0,0,0,8.317.864c3.623,0,9.306-.329,9.306-5.476,0-4.282-3.583-5.476-8.565-5.476Z" transform="translate(-931.802 -292.182)" fill="#1d1d1b"/>
  <path id="Tracciato_1399" data-name="Tracciato 1399" d="M1126.616,342.368a20.44,20.44,0,0,1-6.753-1.029,1.435,1.435,0,0,1-1.071-1.441,1.388,1.388,0,0,1,1.894-1.4,19.761,19.761,0,0,0,5.806.905c3.459,0,6.217-1.4,6.217-5.6v-3.047c-.206,2.1-2.429,3.994-5.929,3.994-4.735,0-7.782-2.47-7.782-8.647V318.65a1.712,1.712,0,0,1,3.418,0v7.371c0,3.994,2.224,5.476,5.147,5.476,2.965,0,5.065-1.565,5.147-5.353V318.65a1.553,1.553,0,0,1,1.688-1.606,1.6,1.6,0,0,1,1.688,1.606V333.8c0,6.424-4.324,8.565-9.471,8.565" transform="translate(-958.692 -304.058)" fill="#1d1d1b"/>
  <path id="Tracciato_1400" data-name="Tracciato 1400" d="M921.07,370.889a9.328,9.328,0,0,1-3.871-.7.89.89,0,0,1-.469-.763.906.906,0,0,1,1.232-.851,7.909,7.909,0,0,0,2.962.543c1.335,0,2.317-.308,2.317-1.246,0-2.185-6.1-.484-6.1-4.488,0-2.595,2.522-2.947,4.077-2.947a8.027,8.027,0,0,1,3.182.616.87.87,0,0,1-.382,1.657,1.123,1.123,0,0,1-.425-.073,6.309,6.309,0,0,0-2.449-.41c-1.143,0-1.994.176-1.994,1.085,0,2.155,6.086.425,6.086,4.487,0,2.61-2.4,3.094-4.165,3.094" transform="translate(-856.88 -325.92)" fill="#1d1d1b"/>
  <path id="Tracciato_1401" data-name="Tracciato 1401" d="M955.678,367.767h-4.912v2.112a1.043,1.043,0,0,1-2.082,0v-4.443c0-3.065,1.584-4.912,4.531-4.912s4.531,1.847,4.531,4.912v4.443a1.035,1.035,0,0,1-2.067,0Zm-4.912-1.789h4.912v-.557c0-2.272-1.159-3.05-2.463-3.05s-2.449.778-2.449,3.05Z" transform="translate(-872.981 -325.965)" fill="#1d1d1b"/>
  <path id="Tracciato_1402" data-name="Tracciato 1402" d="M982.558,361.595c0-.616.44-.924,1.041-.924a.926.926,0,0,1,1.041.924v7.273a6.791,6.791,0,0,0,2.083.263,13.685,13.685,0,0,0,2.6-.278.914.914,0,0,1,1.129.968.845.845,0,0,1-.6.836,9.4,9.4,0,0,1-3.123.425c-1.129,0-4.165-.088-4.165-1.085Z" transform="translate(-890.049 -326.04)" fill="#1d1d1b"/>
  <path id="Tracciato_1403" data-name="Tracciato 1403" d="M1019.2,361.653a1.043,1.043,0,0,1,2.082,0v4.942c0,2.845-1.657,4.488-4.677,4.488-3.036,0-4.693-1.643-4.693-4.488v-4.942a1.043,1.043,0,0,1,2.082,0v4.942a2.6,2.6,0,1,0,5.206,0Z" transform="translate(-904.838 -326.04)" fill="#1d1d1b"/>
  <path id="Tracciato_1404" data-name="Tracciato 1404" d="M1049.564,370.889a9.33,9.33,0,0,1-3.872-.7.89.89,0,0,1-.469-.763.906.906,0,0,1,1.232-.851,7.909,7.909,0,0,0,2.962.543c1.335,0,2.317-.308,2.317-1.246,0-2.185-6.1-.484-6.1-4.488,0-2.595,2.522-2.947,4.077-2.947a8.026,8.026,0,0,1,3.182.616.87.87,0,0,1-.381,1.657,1.122,1.122,0,0,1-.425-.073,6.31,6.31,0,0,0-2.449-.41c-1.143,0-1.994.176-1.994,1.085,0,2.155,6.086.425,6.086,4.487,0,2.61-2.405,3.094-4.165,3.094" transform="translate(-921.623 -325.92)" fill="#1d1d1b"/>
  <path id="Tracciato_1405" data-name="Tracciato 1405" d="M824.191,337.039a3.273,3.273,0,0,1-1.684-.466A94.291,94.291,0,0,1,807.165,325a2.233,2.233,0,1,1,3.082-3.231,89.072,89.072,0,0,0,13.944,10.6c4.2-2.6,22.892-14.772,22.892-25.739a11.284,11.284,0,0,0-20.276-6.828,3.261,3.261,0,0,1-2.614,1.3h0a3.263,3.263,0,0,1-2.616-1.3,11.284,11.284,0,0,0-20.276,6.828,2.233,2.233,0,1,1-4.465,0A15.778,15.778,0,0,1,812.6,290.87a15.609,15.609,0,0,1,11.6,5.1,15.608,15.608,0,0,1,11.6-5.1,15.778,15.778,0,0,1,15.761,15.761c0,6.017-3.924,12.615-11.663,19.612a96.571,96.571,0,0,1-14.007,10.329,3.274,3.274,0,0,1-1.687.468" transform="translate(-796.471 -290.87)" fill="#1d1d1b"/>
  <path id="Tracciato_1406" data-name="Tracciato 1406" d="M842.349,339.418a2.233,2.233,0,0,1-2.188-1.8l-1.667-8.4-.973,3.492a2.233,2.233,0,1,1-4.3-1.2l3.49-12.518a2.233,2.233,0,0,1,4.341.165l3.49,17.593a2.235,2.235,0,0,1-2.192,2.668" transform="translate(-814.762 -304.217)" fill="#43c0f0"/>
  <path id="Tracciato_1407" data-name="Tracciato 1407" d="M849.441,345.9a2.234,2.234,0,0,1-2.1-3l4.08-11.211a2.233,2.233,0,0,1,4-.412l1.1,1.769.329-.482a2.232,2.232,0,0,1,1.843-.971h2.987a2.233,2.233,0,1,1,0,4.465h-1.809l-1.6,2.338a2.233,2.233,0,0,1-3.74-.085l-.478-.772-2.507,6.889a2.234,2.234,0,0,1-2.1,1.47" transform="translate(-821.851 -310.699)" fill="#ffd501"/>
  <path id="Tracciato_1408" data-name="Tracciato 1408" d="M816.711,340.522a2.233,2.233,0,0,1-1.964-1.168l-2.06-3.8-.85.856a2.233,2.233,0,0,1-1.584.659h-11.92a2.233,2.233,0,1,1,0-4.465h10.991l2.311-2.325a2.232,2.232,0,0,1,3.545.509l3.49,6.432a2.233,2.233,0,0,1-1.96,3.3" transform="translate(-796.101 -310.397)" fill="#e5075b"/>
  <path id="Tracciato_1409" data-name="Tracciato 1409" d="M837.332,340.019,834.7,335.17l-1.481,5.314a2.224,2.224,0,0,0,.2,1.684c.009.017.021.033.031.05a2.2,2.2,0,0,0,.19.273c.021.026.042.051.064.075a2.19,2.19,0,0,0,.253.245l.027.024a2.193,2.193,0,0,0,.327.211c.028.015.056.028.084.042a2.217,2.217,0,0,0,.354.138l.023.008a2.216,2.216,0,0,0,.4.069l.085.006a2.229,2.229,0,0,0,.777-.1l.063-.02a1.785,1.785,0,0,0,.566-.3c.049-.035.1-.064.148-.1s.077-.081.118-.12a2.3,2.3,0,0,0,.184-.19c.015-.019.024-.04.039-.059a2.225,2.225,0,0,0,.2-.3c.018-.036.028-.074.045-.111a2.144,2.144,0,0,0-.065-1.981" transform="translate(-814.762 -313.191)" fill="#3c0656"/>
  <path id="Tracciato_1410" data-name="Tracciato 1410" d="M851.634,348.483l-1.555-7.838-2.733,7.509a2.219,2.219,0,0,0-.076,1.251c.013.059.033.115.05.171a2.182,2.182,0,0,0,.081.228c.021.05.047.1.072.145a2.213,2.213,0,0,0,.126.215c.031.045.063.088.1.131a2.168,2.168,0,0,0,.162.183c.04.04.079.08.122.117a2.161,2.161,0,0,0,.2.155c.042.029.083.061.128.087a2.226,2.226,0,0,0,.353.17l.021.009a2.266,2.266,0,0,0,.379.1l.04,0a2.205,2.205,0,0,0,.341.03,2.274,2.274,0,0,0,.4-.039c.037-.007.073-.017.11-.026a2.168,2.168,0,0,0,.286-.087c.041-.016.083-.031.123-.049a2.264,2.264,0,0,0,.285-.155c.02-.013.042-.022.061-.036a2.282,2.282,0,0,0,.3-.248c.026-.026.05-.055.075-.082a2.261,2.261,0,0,0,.18-.22c.026-.036.05-.073.073-.111a2.236,2.236,0,0,0,.126-.233c.02-.043.042-.085.059-.13a2.217,2.217,0,0,0,.117-1.252" transform="translate(-821.854 -315.95)" fill="#43a001"/>
</svg>
