<svg xmlns="http://www.w3.org/2000/svg" width="173.395" height="45.17" viewBox="0 0 173.395 45.17">
  <g id="Raggruppa_610" data-name="Raggruppa 610" transform="translate(0)">
    <path id="Tracciato_1329" data-name="Tracciato 1329" d="M558.462,177.226a1.727,1.727,0,0,1,1.787-1.7,1.762,1.762,0,0,1,1.829,1.7v16c0,9.6-4.282,11.846-9.56,11.846-3.616,0-6.442-1.58-8.022-5.778-1.538,4.2-4.406,5.778-8.022,5.778-5.4,0-9.518-2.535-9.518-11.846v-16a1.789,1.789,0,0,1,3.574,0v16c0,6.609,2.619,8.479,6.11,8.479,3.117,0,6.069-2.12,6.069-8.479v-16a1.727,1.727,0,0,1,1.787-1.7,1.788,1.788,0,0,1,1.829,1.7v16c0,6.359,2.868,8.479,6.068,8.479,3.159,0,6.069-1.454,6.069-8.479Z" transform="translate(-470.366 -174.317)" fill="#1d1d1b"/>
    <path id="Tracciato_1330" data-name="Tracciato 1330" d="M605.727,208.488c.54,2.7,2.785,4.447,6.609,4.447a9.321,9.321,0,0,0,5.2-1.454,1.387,1.387,0,0,1,1.954,1.413,1.549,1.549,0,0,1-.582,1.248,11.928,11.928,0,0,1-7.066,1.87c-6.069,0-9.6-3.616-9.6-8.854,0-5.112,3.242-9.144,9.477-9.144,4.655,0,7.939,2.286,7.939,6.193,0,4.074-3.035,5.944-7.44,5.944a10.959,10.959,0,0,1-6.484-1.662m0-2.868a12.256,12.256,0,0,0,5.985,1.454c3.076,0,4.572-1.163,4.572-2.951,0-1.829-1.621-3.117-4.531-3.117-3.783,0-5.57,1.995-6.027,4.614" transform="translate(-507.944 -185.543)" fill="#1d1d1b"/>
    <path id="Tracciato_1331" data-name="Tracciato 1331" d="M645.276,198.595c0,1.288.333,1.745,1.2,1.787a1.418,1.418,0,0,1,1,1.622c-.042.748-.582,1.454-1.953,1.454-2.244,0-3.7-1.413-3.7-4.156V174.695a1.732,1.732,0,0,1,3.45,0Z" transform="translate(-527.706 -173.115)" fill="#1d1d1b"/>
    <path id="Tracciato_1332" data-name="Tracciato 1332" d="M660.049,198.595c0,1.288.333,1.745,1.205,1.787a1.418,1.418,0,0,1,1,1.622c-.042.748-.582,1.454-1.953,1.454-2.244,0-3.7-1.413-3.7-4.156V174.695a1.732,1.732,0,0,1,3.45,0Z" transform="translate(-535.081 -173.115)" fill="#1d1d1b"/>
    <path id="Tracciato_1333" data-name="Tracciato 1333" d="M671.954,177.85c0-1.953,6.775-2.577,11.1-2.577,5.154,0,11.721.665,11.721,7.481,0,3.492-1.871,5.4-4.281,6.152,2.743.374,6.484,2.119,6.484,7.107,0,7.856-8.063,8.687-13.176,8.687-3.533,0-11.847-.624-11.847-2.536Zm12.719,9.768c5.32,0,6.443-2.286,6.443-4.655,0-3.7-3.409-4.655-7.939-4.655a38.774,38.774,0,0,0-7.648.748v8.562Zm-9.144,2.993v10.183a38.367,38.367,0,0,0,8.4.873c3.657,0,9.394-.333,9.394-5.528,0-4.323-3.617-5.528-8.646-5.528Z" transform="translate(-542.745 -174.192)" fill="#1d1d1b"/>
    <path id="Tracciato_1334" data-name="Tracciato 1334" d="M733.22,224.405a20.617,20.617,0,0,1-6.816-1.039,1.447,1.447,0,0,1-1.081-1.454,1.4,1.4,0,0,1,1.912-1.414,19.931,19.931,0,0,0,5.861.915c3.492,0,6.276-1.413,6.276-5.653v-3.076c-.208,2.12-2.452,4.032-5.985,4.032-4.78,0-7.856-2.494-7.856-8.728v-7.523a1.728,1.728,0,0,1,3.45,0v7.44c0,4.032,2.245,5.528,5.2,5.528,2.993,0,5.112-1.579,5.2-5.4v-7.565a1.567,1.567,0,0,1,1.7-1.621,1.612,1.612,0,0,1,1.7,1.621v15.3c0,6.485-4.365,8.646-9.56,8.646" transform="translate(-569.385 -185.958)" fill="#1d1d1b"/>
    <path id="Tracciato_1335" data-name="Tracciato 1335" d="M530.6,252.786a9.416,9.416,0,0,1-3.908-.71.9.9,0,0,1-.474-.77.915.915,0,0,1,1.244-.859,7.987,7.987,0,0,0,2.99.548c1.348,0,2.339-.311,2.339-1.258,0-2.206-6.158-.488-6.158-4.53,0-2.62,2.546-2.975,4.115-2.975a8.1,8.1,0,0,1,3.212.622.878.878,0,0,1-.385,1.673,1.132,1.132,0,0,1-.429-.074,6.368,6.368,0,0,0-2.473-.415c-1.154,0-2.013.178-2.013,1.1,0,2.176,6.143.429,6.143,4.529,0,2.635-2.427,3.123-4.2,3.123" transform="translate(-469.997 -207.616)" fill="#1d1d1b"/>
    <path id="Tracciato_1336" data-name="Tracciato 1336" d="M557.637,243.49c0-.533.177-.77.858-.858a26.483,26.483,0,0,1,3.39-.252c2.339,0,4.308.784,4.308,3.42,0,2.8-2.517,3.464-4.337,3.464-.755,0-1.54-.074-2.117-.118v2.634a1.052,1.052,0,0,1-2.1,0Zm2.1,3.789a13.308,13.308,0,0,0,1.984.134c1.021,0,2.324-.193,2.324-1.6,0-1.362-1.3-1.569-2.324-1.569a11.572,11.572,0,0,0-1.984.148Z" transform="translate(-485.682 -207.69)" fill="#1d1d1b"/>
    <path id="Tracciato_1337" data-name="Tracciato 1337" d="M595.618,249.633h-4.959v2.132a1.053,1.053,0,0,1-2.1,0V247.28c0-3.094,1.6-4.959,4.574-4.959s4.574,1.865,4.574,4.959v4.485a1.045,1.045,0,0,1-2.087,0Zm-4.959-1.805h4.959v-.563c0-2.294-1.169-3.079-2.487-3.079s-2.472.784-2.472,3.079Z" transform="translate(-501.116 -207.661)" fill="#1d1d1b"/>
    <path id="Tracciato_1338" data-name="Tracciato 1338" d="M454.5,212.8a2.136,2.136,0,0,1-1.553-.67c-.311-.33-7.625-8.192-7.625-18.128s7.314-17.8,7.625-18.127a2.136,2.136,0,0,1,3.107,0c.311.33,7.625,8.192,7.625,18.127s-7.314,17.8-7.625,18.128a2.138,2.138,0,0,1-1.554.67m0-32.06c-1.911,2.625-4.91,7.641-4.91,13.262,0,5.647,2.991,10.646,4.9,13.263,1.911-2.626,4.91-7.642,4.91-13.263,0-5.647-2.991-10.645-4.9-13.262" transform="translate(-429.618 -174.158)" fill="#ffd501"/>
    <path id="Tracciato_1339" data-name="Tracciato 1339" d="M440.236,222.525c-1.671,0-11-.307-16.964-6.948-6.337-7.055-6.159-18.324-6.149-18.8a2.136,2.136,0,0,1,2.076-2.087c.438,0,10.778-.214,17.209,6.945,6.336,7.055,6.16,18.324,6.149,18.8a2.136,2.136,0,0,1-2.076,2.087c-.032,0-.116,0-.246,0m.187-2.138h0Zm-18.932-21.3c.268,3.292,1.266,9.52,4.959,13.63,3.525,3.925,8.8,5.066,11.741,5.4-.268-3.292-1.268-9.52-4.96-13.631-3.525-3.925-8.8-5.066-11.74-5.4" transform="translate(-415.54 -183.884)" fill="#43c0f0"/>
    <path id="Tracciato_1340" data-name="Tracciato 1340" d="M427.474,246.031c-7.183,0-12.764-6.433-13-6.707a2.137,2.137,0,0,1,0-2.776c.234-.273,5.815-6.708,13-6.708s12.765,6.434,13,6.708a2.136,2.136,0,0,1,0,2.776c-.233.273-5.814,6.707-13,6.707m-8.342-8.094c1.738,1.544,4.888,3.823,8.342,3.823s6.6-2.278,8.342-3.823c-1.738-1.544-4.889-3.823-8.342-3.823s-6.6,2.279-8.342,3.824" transform="translate(-413.964 -201.431)" fill="#e5075b"/>
    <path id="Tracciato_1341" data-name="Tracciato 1341" d="M456.609,223.795a34.121,34.121,0,0,0-.511-5.927c-.567.966-1.133,1.8-1.627,2.483-1.912-2.617-4.9-7.616-4.9-13.263a16.919,16.919,0,0,1,.241-2.778,18.867,18.867,0,0,0-3.746-2.891,22.569,22.569,0,0,0-.739,4.646,13.723,13.723,0,0,1,1.958,1.784c3.692,4.111,4.691,10.339,4.959,13.631a24.593,24.593,0,0,1-2.446-.4,29.827,29.827,0,0,0,3.127,4.139,2.136,2.136,0,0,0,1.541.668h.03c.065,0,.127-.013.19-.02a2.21,2.21,0,0,0,.254-.032c.053-.012.1-.033.153-.049a2.122,2.122,0,0,0,.787-.436c.04-.036.083-.066.121-.1a2.126,2.126,0,0,0,.612-1.447" transform="translate(-429.618 -187.244)" fill="#43a001"/>
    <path id="Tracciato_1342" data-name="Tracciato 1342" d="M447.564,238.221a2.13,2.13,0,0,0-.511-1.377,23.093,23.093,0,0,0-4.2-3.67c.174,1.05.281,2,.345,2.79-2.94-.331-8.216-1.472-11.74-5.4-.038-.042-.071-.088-.108-.13a16.189,16.189,0,0,0-4.2,1.59c.353.479.729.946,1.132,1.395a18.026,18.026,0,0,0,1.938,1.853,9.7,9.7,0,0,1,3.84-.866c3.454,0,6.6,2.28,8.342,3.823a19.954,19.954,0,0,1-2.076,1.615,26.32,26.32,0,0,0,4.92.523c.131,0,.214,0,.246,0a2.129,2.129,0,0,0,1.647-.862c.031-.042.063-.084.09-.128a2.111,2.111,0,0,0,.118-.214c.021-.043.043-.086.061-.13a2.129,2.129,0,0,0,.082-.251c.01-.041.024-.081.033-.122a2.125,2.125,0,0,0,.038-.316c0-.032.009-.063.009-.1,0-.009,0-.016,0-.028" transform="translate(-420.543 -201.728)" fill="#3c0656"/>
    <path id="Tracciato_1343" data-name="Tracciato 1343" d="M485.894,219a23.2,23.2,0,0,0-6.089-4.819c5.183-7.051,5.027-16.961,5.017-17.406a2.136,2.136,0,0,0-2.076-2.087c-.438-.011-10.78-.214-17.209,6.945-6.176,6.875-6.165,17.747-6.15,18.738,0,.014,0,.027,0,.04v.022c0,.015,0,.029.005.043a2.044,2.044,0,0,0,.043.349c.007.036.019.07.028.105a2.178,2.178,0,0,0,.091.274c.016.039.035.075.053.112a2.079,2.079,0,0,0,.133.236c.024.037.05.073.077.108s.05.078.081.115c.234.274,5.814,6.707,13,6.707s12.764-6.433,13-6.707a2.136,2.136,0,0,0,0-2.775m-17.179-14.513c3.526-3.925,8.8-5.066,11.74-5.4-.266,3.259-1.252,9.391-4.852,13.5a12.721,12.721,0,0,0-2.707-.3,15.9,15.9,0,0,0-8.8,3.044c.551-3.35,1.8-7.7,4.623-10.848M472.9,224.21c-3.451,0-6.6-2.275-8.337-3.819,1.746-1.544,4.909-3.828,8.337-3.828,3.454,0,6.6,2.28,8.342,3.823-1.738,1.545-4.889,3.823-8.342,3.823" transform="translate(-436.637 -183.882)" fill="#1d1d1b"/>
  </g>
</svg>
