<svg id="Raggruppa_611" data-name="Raggruppa 611" xmlns="http://www.w3.org/2000/svg" width="165.407" height="44.815" viewBox="0 0 165.407 44.815">
  <path id="Tracciato_1344" data-name="Tracciato 1344" d="M130.423,134.252a1.716,1.716,0,0,1,1.776-1.693,1.751,1.751,0,0,1,1.818,1.693v15.9c0,9.542-4.255,11.772-9.5,11.772-3.593,0-6.4-1.57-7.972-5.742-1.528,4.172-4.378,5.742-7.971,5.742-5.37,0-9.459-2.519-9.459-11.772v-15.9a1.778,1.778,0,0,1,3.552,0v15.9c0,6.568,2.6,8.427,6.072,8.427,3.1,0,6.03-2.107,6.03-8.427v-15.9a1.716,1.716,0,0,1,1.776-1.693,1.776,1.776,0,0,1,1.818,1.693v15.9c0,6.32,2.85,8.427,6.031,8.427,3.139,0,6.031-1.446,6.031-8.427Z" transform="translate(-49.783 -131.361)" fill="#1d1d1b"/>
  <path id="Tracciato_1345" data-name="Tracciato 1345" d="M177.862,165.46c.538,2.685,2.768,4.419,6.568,4.419a9.256,9.256,0,0,0,5.163-1.446,1.378,1.378,0,0,1,1.942,1.4,1.538,1.538,0,0,1-.578,1.239,11.848,11.848,0,0,1-7.022,1.859c-6.031,0-9.542-3.594-9.542-8.8,0-5.081,3.222-9.087,9.418-9.087,4.626,0,7.89,2.272,7.89,6.155,0,4.048-3.016,5.907-7.394,5.907a10.891,10.891,0,0,1-6.444-1.652m0-2.85a12.182,12.182,0,0,0,5.948,1.445c3.057,0,4.544-1.156,4.544-2.933,0-1.818-1.611-3.1-4.5-3.1-3.759,0-5.535,1.983-5.99,4.585" transform="translate(-87.595 -142.658)" fill="#1d1d1b"/>
  <path id="Tracciato_1346" data-name="Tracciato 1346" d="M217.411,155.473c0,1.28.33,1.735,1.2,1.776a1.409,1.409,0,0,1,.991,1.611c-.041.744-.578,1.446-1.941,1.446-2.23,0-3.677-1.4-3.677-4.131V131.722a1.721,1.721,0,0,1,3.429,0Z" transform="translate(-107.481 -130.152)" fill="#1d1d1b"/>
  <path id="Tracciato_1347" data-name="Tracciato 1347" d="M232.184,155.473c0,1.28.33,1.735,1.2,1.776a1.409,1.409,0,0,1,.991,1.611c-.041.744-.578,1.446-1.941,1.446-2.23,0-3.677-1.4-3.677-4.131V131.722a1.721,1.721,0,0,1,3.429,0Z" transform="translate(-114.901 -130.152)" fill="#1d1d1b"/>
  <path id="Tracciato_1348" data-name="Tracciato 1348" d="M244.111,134.871c0-1.941,6.733-2.561,11.028-2.561,5.122,0,11.649.661,11.649,7.435,0,3.47-1.859,5.37-4.255,6.114,2.726.371,6.444,2.106,6.444,7.063,0,7.807-8.013,8.633-13.094,8.633-3.511,0-11.772-.62-11.772-2.52Zm12.639,9.707c5.287,0,6.4-2.272,6.4-4.626,0-3.676-3.388-4.626-7.89-4.626a38.572,38.572,0,0,0-7.6.743v8.509Zm-9.087,2.974v10.12a38.13,38.13,0,0,0,8.344.868c3.635,0,9.336-.33,9.336-5.494,0-4.3-3.593-5.494-8.592-5.494Z" transform="translate(-122.615 -131.236)" fill="#1d1d1b"/>
  <path id="Tracciato_1349" data-name="Tracciato 1349" d="M305.327,181.283a20.492,20.492,0,0,1-6.774-1.033,1.439,1.439,0,0,1-1.075-1.445,1.393,1.393,0,0,1,1.9-1.405,19.8,19.8,0,0,0,5.824.909c3.471,0,6.238-1.4,6.238-5.618v-3.056c-.207,2.106-2.437,4.007-5.948,4.007-4.751,0-7.807-2.478-7.807-8.674V157.49a1.718,1.718,0,0,1,3.429,0v7.394c0,4.007,2.23,5.494,5.163,5.494,2.975,0,5.081-1.57,5.164-5.37V157.49a1.557,1.557,0,0,1,1.694-1.611,1.6,1.6,0,0,1,1.693,1.611v15.2c0,6.444-4.338,8.592-9.5,8.592" transform="translate(-149.42 -143.074)" fill="#1d1d1b"/>
  <path id="Tracciato_1350" data-name="Tracciato 1350" d="M100.52,205.829v2.942a1.051,1.051,0,0,1-2.088,0v-8.4c.029-.971,3.133-1.074,4.177-1.074a11.638,11.638,0,0,1,3.369.338.878.878,0,0,1,.617.853.95.95,0,0,1-1.029,1,14.43,14.43,0,0,0-2.471-.22,14.611,14.611,0,0,0-2.575.191v2.412h2.928a.981.981,0,1,1,0,1.956Z" transform="translate(-49.441 -164.883)" fill="#1d1d1b"/>
  <path id="Tracciato_1351" data-name="Tracciato 1351" d="M130.119,200.505a1.045,1.045,0,0,1,2.088,0v8.3a1.045,1.045,0,0,1-2.088,0Z" transform="translate(-65.357 -164.987)" fill="#1d1d1b"/>
  <path id="Tracciato_1352" data-name="Tracciato 1352" d="M153.334,201.21c-1.03.074-1.722.206-2.633.309a.9.9,0,0,1-1.074-.882.876.876,0,0,1,.854-.971,21.788,21.788,0,0,1,3.927-.368,20.655,20.655,0,0,1,3.884.368.881.881,0,0,1,.839.971.891.891,0,0,1-1.075.882c-.912-.117-1.6-.235-2.632-.309V208.7a1.045,1.045,0,0,1-2.089,0Z" transform="translate(-75.156 -164.883)" fill="#1d1d1b"/>
  <path id="Tracciato_1353" data-name="Tracciato 1353" d="M26.3,182A18.885,18.885,0,1,1,45.18,163.111,18.906,18.906,0,0,1,26.3,182m0-33.29a14.405,14.405,0,1,0,14.4,14.4,14.422,14.422,0,0,0-14.4-14.4" transform="translate(-3.722 -137.222)" fill="#1d1d1b"/>
  <path id="Tracciato_1354" data-name="Tracciato 1354" d="M2.238,151.581a2.24,2.24,0,0,1-1.9-3.419A26.237,26.237,0,0,1,5.2,142.373a2.24,2.24,0,0,1,2.979,3.345,21.735,21.735,0,0,0-4.034,4.8,2.24,2.24,0,0,1-1.907,1.062" transform="translate(0 -136.006)" fill="#3c0656"/>
  <path id="Tracciato_1355" data-name="Tracciato 1355" d="M35.213,185.939a2.256,2.256,0,0,1-1.247-.378,2.188,2.188,0,0,1-.341-.28l-5.045-5.045a2.247,2.247,0,0,1-.117-3.051c.038-.043.077-.086.117-.126a2.251,2.251,0,0,1,3.177,0L36.8,182.1a2.252,2.252,0,0,1,0,3.177,2.188,2.188,0,0,1-.341.28,2.256,2.256,0,0,1-1.247.378" transform="translate(-14.025 -153.383)" fill="#e5075b"/>
  <path id="Tracciato_1356" data-name="Tracciato 1356" d="M40.321,182.841a2.24,2.24,0,0,1-1.584-3.823L46.86,170.9a2.239,2.239,0,0,1,3.167,3.167L41.9,182.185a2.232,2.232,0,0,1-1.584.656" transform="translate(-19.128 -150.288)" fill="#43c0f0"/>
  <path id="Tracciato_1357" data-name="Tracciato 1357" d="M41.905,186.264l-1.579-1.579-1.589,1.589a2.237,2.237,0,0,0,.721,3.649l.052.019a2.181,2.181,0,0,0,.347.1l.056.013a2.111,2.111,0,0,0,.8,0c.035-.006.07-.015.1-.023a2.234,2.234,0,0,0,.274-.081c.04-.015.081-.029.12-.046a2.2,2.2,0,0,0,.3-.161c.014-.009.03-.015.044-.025a2.245,2.245,0,0,0,.346-3.46" transform="translate(-19.128 -157.543)" fill="#3c0656"/>
  <path id="Tracciato_1358" data-name="Tracciato 1358" d="M78.774,151.581a2.239,2.239,0,0,1-1.907-1.062,21.735,21.735,0,0,0-4.034-4.8,2.24,2.24,0,1,1,2.979-3.345,26.237,26.237,0,0,1,4.865,5.789,2.24,2.24,0,0,1-1.9,3.419" transform="translate(-36.207 -136.006)" fill="#ffd501"/>
  <path id="Tracciato_1359" data-name="Tracciato 1359" d="M43.054,135.328h-8.7a2.24,2.24,0,1,1,0-4.479h8.7a2.24,2.24,0,1,1,0,4.479" transform="translate(-16.131 -130.502)" fill="#43a001"/>
</svg>
