<svg xmlns="http://www.w3.org/2000/svg" width="173.327" height="50.069" viewBox="0 0 173.327 50.069">
  <g id="Raggruppa_613" data-name="Raggruppa 613" transform="translate(0)">
    <path id="Tracciato_1375" data-name="Tracciato 1375" d="M929,68.668a1.712,1.712,0,0,1,1.772-1.69,1.747,1.747,0,0,1,1.814,1.69V84.536c0,9.521-4.246,11.747-9.48,11.747-3.586,0-6.388-1.566-7.955-5.729-1.525,4.163-4.369,5.729-7.954,5.729-5.358,0-9.438-2.514-9.438-11.747V68.668a1.774,1.774,0,0,1,3.544,0V84.536c0,6.553,2.6,8.408,6.059,8.408,3.091,0,6.018-2.1,6.018-8.408V68.668a1.712,1.712,0,0,1,1.772-1.69,1.773,1.773,0,0,1,1.814,1.69V84.536c0,6.306,2.844,8.408,6.017,8.408,3.132,0,6.018-1.442,6.018-8.408Z" transform="translate(-840.256 -65.595)" fill="#1d1d1b"/>
    <path id="Tracciato_1376" data-name="Tracciato 1376" d="M976.5,99.856c.536,2.679,2.762,4.409,6.553,4.409a9.243,9.243,0,0,0,5.152-1.442,1.375,1.375,0,0,1,1.937,1.4,1.536,1.536,0,0,1-.577,1.237,11.828,11.828,0,0,1-7.007,1.854c-6.018,0-9.521-3.586-9.521-8.779,0-5.07,3.215-9.067,9.4-9.067,4.616,0,7.872,2.267,7.872,6.141,0,4.04-3.009,5.894-7.378,5.894a10.867,10.867,0,0,1-6.43-1.648m0-2.844a12.153,12.153,0,0,0,5.935,1.442c3.05,0,4.534-1.154,4.534-2.926,0-1.814-1.607-3.091-4.492-3.091-3.751,0-5.523,1.978-5.976,4.575" transform="translate(-878.149 -76.916)" fill="#1d1d1b"/>
    <path id="Tracciato_1377" data-name="Tracciato 1377" d="M1016.049,89.837c0,1.277.33,1.731,1.195,1.772a1.406,1.406,0,0,1,.989,1.608c-.041.741-.577,1.442-1.937,1.442-2.225,0-3.669-1.4-3.669-4.121v-24.4a1.717,1.717,0,0,1,3.421,0Z" transform="translate(-898.079 -64.383)" fill="#1d1d1b"/>
    <path id="Tracciato_1378" data-name="Tracciato 1378" d="M1030.823,89.837c0,1.277.329,1.731,1.194,1.772a1.406,1.406,0,0,1,.989,1.608c-.041.741-.577,1.442-1.937,1.442-2.225,0-3.669-1.4-3.669-4.121v-24.4a1.718,1.718,0,0,1,3.422,0Z" transform="translate(-905.515 -64.383)" fill="#1d1d1b"/>
    <path id="Tracciato_1379" data-name="Tracciato 1379" d="M1042.756,69.284c0-1.937,6.718-2.555,11-2.555,5.111,0,11.623.66,11.623,7.419,0,3.462-1.855,5.359-4.245,6.1,2.72.371,6.43,2.1,6.43,7.048,0,7.79-8,8.614-13.065,8.614-3.5,0-11.747-.618-11.747-2.514Zm12.612,9.686c5.276,0,6.389-2.267,6.389-4.616,0-3.668-3.38-4.616-7.872-4.616a38.45,38.45,0,0,0-7.584.742v8.49Zm-9.067,2.968v10.1a38.047,38.047,0,0,0,8.325.866c3.627,0,9.315-.33,9.315-5.482,0-4.286-3.586-5.482-8.573-5.482Z" transform="translate(-913.244 -65.47)" fill="#1d1d1b"/>
    <path id="Tracciato_1380" data-name="Tracciato 1380" d="M1103.955,115.647a20.443,20.443,0,0,1-6.759-1.03,1.435,1.435,0,0,1-1.072-1.442,1.39,1.39,0,0,1,1.9-1.4,19.762,19.762,0,0,0,5.811.907c3.462,0,6.224-1.4,6.224-5.605v-3.05c-.206,2.1-2.432,4-5.935,4-4.74,0-7.79-2.473-7.79-8.655v-7.46a1.714,1.714,0,0,1,3.421,0v7.378c0,4,2.226,5.482,5.152,5.482,2.968,0,5.069-1.566,5.152-5.358v-7.5a1.554,1.554,0,0,1,1.69-1.607,1.6,1.6,0,0,1,1.69,1.607v15.167c0,6.43-4.328,8.573-9.48,8.573" transform="translate(-940.109 -77.334)" fill="#1d1d1b"/>
    <text id="_" data-name=" " transform="translate(55.534 41.503)" fill="#1d1d1b" font-size="11" font-family="Helvetica"><tspan x="0" y="0"> </tspan></text>
    <path id="Tracciato_1381" data-name="Tracciato 1381" d="M897.4,135.127c0-1.16,2.8-1.292,4.066-1.292,1.938,0,4.227.265,4.227,2.731a2.02,2.02,0,0,1-1.395,2.113,2.11,2.11,0,0,1,1.909,2.3c0,2.95-2.877,3.215-4.712,3.215-.851,0-4.1-.074-4.1-1.218Zm4.345,2.774c1.5,0,1.864-.47,1.864-1.145,0-.778-.587-1.2-2.056-1.2a12.794,12.794,0,0,0-2.069.177V137.9Zm-2.261,1.717v2.671a10.171,10.171,0,0,0,2.114.191c1.38,0,2.5-.176,2.5-1.424,0-1.174-.924-1.438-2.348-1.438Z" transform="translate(-840.076 -99.249)" fill="#1d1d1b"/>
    <path id="Tracciato_1382" data-name="Tracciato 1382" d="M932.208,139.913v2.1a9.954,9.954,0,0,0,2.436.234,11.081,11.081,0,0,0,2.6-.249.952.952,0,0,1,.4,1.835,10.459,10.459,0,0,1-3.347.367c-1.042,0-4.168-.088-4.168-1.072v-8.22c0-.969,3.126-1.072,4.168-1.072a11.125,11.125,0,0,1,3.362.337.86.86,0,0,1,.616.837.94.94,0,0,1-1.028,1,13.322,13.322,0,0,0-2.466-.22,14.5,14.5,0,0,0-2.569.205v1.953h3.274c.734,0,1.057.338,1.057.983s-.323.983-1.057.983Z" transform="translate(-856.548 -99.25)" fill="#1d1d1b"/>
    <path id="Tracciato_1383" data-name="Tracciato 1383" d="M967.778,141.028h-4.917v2.114a1.044,1.044,0,0,1-2.084,0v-4.447c0-3.068,1.585-4.917,4.536-4.917s4.535,1.849,4.535,4.917v4.447a1.036,1.036,0,0,1-2.069,0Zm-4.917-1.79h4.917v-.558c0-2.275-1.16-3.053-2.466-3.053s-2.451.778-2.451,3.053Z" transform="translate(-871.978 -99.22)" fill="#1d1d1b"/>
    <path id="Tracciato_1384" data-name="Tracciato 1384" d="M1001.268,134.908a1.044,1.044,0,0,1,2.084,0v4.946c0,2.848-1.659,4.492-4.682,4.492-3.039,0-4.7-1.644-4.7-4.492v-4.946a1.044,1.044,0,0,1,2.084,0v4.946a2.606,2.606,0,1,0,5.211,0Z" transform="translate(-888.688 -99.295)" fill="#1d1d1b"/>
    <path id="Tracciato_1385" data-name="Tracciato 1385" d="M1030.393,135.626c-1.028.073-1.717.205-2.628.308a.894.894,0,0,1-1.071-.881.874.874,0,0,1,.851-.969,21.793,21.793,0,0,1,3.919-.367,20.617,20.617,0,0,1,3.875.367.879.879,0,0,1,.837.969.889.889,0,0,1-1.072.881c-.91-.117-1.6-.235-2.627-.308V143.1a1.043,1.043,0,0,1-2.084,0Z" transform="translate(-905.159 -99.19)" fill="#1d1d1b"/>
    <path id="Tracciato_1386" data-name="Tracciato 1386" d="M1062.73,140.6c-2.364-.367-3.64-2.129-3.64-4.814v-.881a1.044,1.044,0,0,1,2.084,0v.9c0,2.172,1.218,2.921,2.6,2.921s2.612-.749,2.612-2.921v-.9a1.044,1.044,0,0,1,2.085,0v.881c0,2.686-1.292,4.447-3.655,4.814v2.6a1.043,1.043,0,0,1-2.084,0Z" transform="translate(-921.467 -99.295)" fill="#1d1d1b"/>
    <path id="Tracciato_1387" data-name="Tracciato 1387" d="M857.549,132.457a2.228,2.228,0,0,1-1.513-.59c-1.275-1.174-12.492-11.684-13.755-19.117a2.235,2.235,0,1,1,4.406-.748c.855,5.031,9.224,13.672,12.377,16.578a2.235,2.235,0,0,1-1.515,3.879" transform="translate(-812.313 -87.322)" fill="#ffd501"/>
    <path id="Tracciato_1388" data-name="Tracciato 1388" d="M844.434,91.48a2.236,2.236,0,0,1-2.2-1.861c-1.309-7.7,13.835-22.043,16.884-24.839a2.235,2.235,0,0,1,3.021,3.294c-6.64,6.093-16.158,16.915-15.5,20.8a2.235,2.235,0,0,1-1.829,2.578,2.267,2.267,0,0,1-.377.032" transform="translate(-812.265 -64.193)" fill="#43a001"/>
    <path id="Tracciato_1389" data-name="Tracciato 1389" d="M812.308,138.616a2.235,2.235,0,0,1-1.843-3.5c3.681-5.39,9.245-15.57,8.5-19.937a2.235,2.235,0,1,1,4.406-.748c.577,3.4-.8,8.233-4.213,14.779a91.155,91.155,0,0,1-5.006,8.429,2.232,2.232,0,0,1-1.847.974" transform="translate(-796.118 -88.547)" fill="#43c0f0"/>
    <path id="Tracciato_1390" data-name="Tracciato 1390" d="M807.021,100.632a2.235,2.235,0,0,1-2.2-1.861c-.66-3.882-13.217-10.954-21.5-14.512a2.235,2.235,0,0,1,1.764-4.107c3.8,1.632,22.83,10.165,24.139,17.869A2.235,2.235,0,0,1,807.4,100.6a2.27,2.27,0,0,1-.377.032" transform="translate(-781.97 -72.135)" fill="#e5075b"/>
    <path id="Tracciato_1391" data-name="Tracciato 1391" d="M844.11,110.172a2.235,2.235,0,0,0-1.829,2.576h0a2.236,2.236,0,0,0,2.2,1.861,2.268,2.268,0,0,0,.377-.032A2.235,2.235,0,0,0,846.688,112h0a2.24,2.24,0,0,0-2.577-1.829" transform="translate(-812.314 -87.322)" fill="#427423"/>
    <path id="Tracciato_1392" data-name="Tracciato 1392" d="M830.15,117.044a2.269,2.269,0,0,0,.377-.032,2.235,2.235,0,0,0,1.83-2.569l0-.008a2.235,2.235,0,0,0-4.407.745v0a2.236,2.236,0,0,0,2.2,1.861" transform="translate(-805.099 -88.547)" fill="#3c0656"/>
    <path id="Tracciato_1393" data-name="Tracciato 1393" d="M827.082,81.537a6.22,6.22,0,1,1,1.054-.089,6.308,6.308,0,0,1-1.054.089m.014-8.949a2.735,2.735,0,1,0,2.7,2.278,2.732,2.732,0,0,0-2.7-2.278" transform="translate(-801.558 -66.669)" fill="#1d1d1b"/>
  </g>
</svg>
