<svg xmlns="http://www.w3.org/2000/svg" width="63.851" height="56.389" viewBox="0 0 63.851 56.389">
  <g id="Raggruppa_609" data-name="Raggruppa 609" transform="translate(-688.075 -1115.432)">
    <path id="Tracciato_1426" data-name="Tracciato 1426" d="M300.033,378.507H264.386a8.843,8.843,0,0,1-8.824-8.843v-7.005a2.882,2.882,0,1,1,5.765,0v7.005a3.066,3.066,0,0,0,3.059,3.066h35.647a3.066,3.066,0,0,0,3.059-3.066v-38.7a3.066,3.066,0,0,0-3.059-3.066H264.386a3.066,3.066,0,0,0-3.059,3.066V343.57a2.882,2.882,0,1,1-5.765,0V330.962a8.843,8.843,0,0,1,8.824-8.844h35.647a8.843,8.843,0,0,1,8.824,8.844v38.7a8.843,8.843,0,0,1-8.824,8.843" transform="translate(443.069 793.314)" fill="#161615"/>
    <path id="Tracciato_1427" data-name="Tracciato 1427" d="M288.007,376.592a2.885,2.885,0,0,1-2.824-2.327l-2.152-10.871-1.256,4.518a2.883,2.883,0,1,1-5.553-1.552l4.506-16.2a2.881,2.881,0,0,1,5.6.214l4.506,22.762a2.887,2.887,0,0,1-2.83,3.452" transform="translate(435.68 784.027)" fill="#29b5ed"/>
    <path id="Tracciato_1428" data-name="Tracciato 1428" d="M293.069,381.2a2.887,2.887,0,0,1-2.709-3.877l5.267-14.5a2.88,2.88,0,0,1,5.159-.533l1.416,2.289.425-.624a2.88,2.88,0,0,1,2.379-1.257h3.856a2.889,2.889,0,0,1,0,5.777h-2.336l-2.066,3.025a2.879,2.879,0,0,1-4.829-.11l-.617-1-3.236,8.913a2.885,2.885,0,0,1-2.709,1.9" transform="translate(430.622 779.421)" fill="#ffcb00"/>
    <path id="Tracciato_1429" data-name="Tracciato 1429" d="M265.687,374.417a2.882,2.882,0,0,1-2.536-1.511L260.493,368l-1.1,1.107a2.879,2.879,0,0,1-2.044.852H241.962a2.889,2.889,0,0,1,0-5.777h14.189l2.983-3.008a2.878,2.878,0,0,1,4.577.659l4.506,8.322a2.888,2.888,0,0,1-2.531,4.267" transform="translate(448.995 779.635)" fill="#d9004a"/>
    <path id="Tracciato_1430" data-name="Tracciato 1430" d="M281.532,372.136l-3.4-6.273-1.913,6.875a2.883,2.883,0,0,0,.259,2.179c.012.022.028.042.04.064a2.854,2.854,0,0,0,.246.353c.027.033.054.065.083.1a2.836,2.836,0,0,0,.327.317c.012.01.023.022.035.031a2.833,2.833,0,0,0,.422.273c.036.019.072.037.109.054a2.855,2.855,0,0,0,.457.179l.03.01a2.86,2.86,0,0,0,.517.089l.11.008a2.871,2.871,0,0,0,1-.129l.082-.026a2.305,2.305,0,0,0,.731-.391c.063-.046.131-.083.191-.134s.1-.1.152-.155a2.983,2.983,0,0,0,.238-.246c.019-.024.031-.052.05-.077a2.882,2.882,0,0,0,.254-.393c.024-.046.036-.1.058-.143a2.779,2.779,0,0,0-.084-2.562" transform="translate(435.68 777.649)" fill="#251841"/>
    <path id="Tracciato_1431" data-name="Tracciato 1431" d="M295.9,381.479l-2.007-10.141-3.529,9.715a2.878,2.878,0,0,0-.1,1.619c.017.076.042.148.065.221a2.816,2.816,0,0,0,.1.295c.028.065.061.126.093.187a2.868,2.868,0,0,0,.163.279c.04.058.081.114.125.169a2.8,2.8,0,0,0,.209.237c.051.052.1.1.157.151a2.758,2.758,0,0,0,.262.2c.054.037.107.078.165.112a2.869,2.869,0,0,0,.455.22l.027.012a2.928,2.928,0,0,0,.489.131c.017,0,.035,0,.052,0a2.833,2.833,0,0,0,.44.039,2.929,2.929,0,0,0,.513-.051c.048-.009.095-.023.142-.033a2.79,2.79,0,0,0,.369-.113c.053-.021.107-.04.159-.063a2.917,2.917,0,0,0,.368-.2c.026-.017.054-.029.079-.046a2.933,2.933,0,0,0,.385-.321c.034-.033.065-.071.1-.107a2.919,2.919,0,0,0,.233-.285c.033-.047.064-.094.095-.144a2.9,2.9,0,0,0,.162-.3c.026-.055.054-.11.076-.168a2.876,2.876,0,0,0,.151-1.62" transform="translate(430.62 775.689)" fill="#479124"/>
  </g>
</svg>
