<svg id="Raggruppa_612" data-name="Raggruppa 612" xmlns="http://www.w3.org/2000/svg" width="177.376" height="46.567" viewBox="0 0 177.376 46.567">
  <path id="Tracciato_1360" data-name="Tracciato 1360" d="M490.1,4.368a1.726,1.726,0,0,1,1.787-1.7,1.762,1.762,0,0,1,1.829,1.7v16c0,9.6-4.281,11.843-9.558,11.843-3.615,0-6.441-1.579-8.02-5.776-1.537,4.2-4.4,5.776-8.02,5.776-5.4,0-9.516-2.535-9.516-11.843v-16a1.789,1.789,0,0,1,3.574,0v16c0,6.607,2.618,8.478,6.109,8.478,3.116,0,6.067-2.12,6.067-8.478v-16a1.726,1.726,0,0,1,1.787-1.7,1.788,1.788,0,0,1,1.829,1.7v16c0,6.358,2.867,8.478,6.067,8.478,3.158,0,6.067-1.454,6.067-8.478Z" transform="translate(-398.006 -1.33)" fill="#1d1d1b"/>
  <path id="Tracciato_1361" data-name="Tracciato 1361" d="M537.372,35.627c.54,2.7,2.784,4.446,6.607,4.446a9.319,9.319,0,0,0,5.195-1.454,1.386,1.386,0,0,1,1.953,1.413,1.549,1.549,0,0,1-.582,1.247,11.925,11.925,0,0,1-7.065,1.87c-6.067,0-9.6-3.616-9.6-8.852,0-5.111,3.242-9.142,9.476-9.142,4.654,0,7.937,2.286,7.937,6.192,0,4.073-3.034,5.943-7.439,5.943a10.955,10.955,0,0,1-6.482-1.662m0-2.868a12.252,12.252,0,0,0,5.984,1.454c3.075,0,4.571-1.163,4.571-2.95,0-1.829-1.62-3.117-4.529-3.117-3.782,0-5.569,1.995-6.026,4.613" transform="translate(-435.59 -12.559)" fill="#1d1d1b"/>
  <path id="Tracciato_1362" data-name="Tracciato 1362" d="M576.922,25.73c0,1.288.332,1.745,1.2,1.787a1.418,1.418,0,0,1,1,1.621c-.042.748-.582,1.454-1.953,1.454-2.244,0-3.7-1.413-3.7-4.155V1.835a1.731,1.731,0,0,1,3.45,0Z" transform="translate(-455.358 -0.128)" fill="#1d1d1b"/>
  <path id="Tracciato_1363" data-name="Tracciato 1363" d="M591.7,25.73c0,1.288.333,1.745,1.2,1.787a1.418,1.418,0,0,1,1,1.621c-.042.748-.582,1.454-1.953,1.454-2.244,0-3.7-1.413-3.7-4.155V1.835a1.731,1.731,0,0,1,3.449,0Z" transform="translate(-462.734 -0.128)" fill="#1d1d1b"/>
  <path id="Tracciato_1364" data-name="Tracciato 1364" d="M603.6,4.991c0-1.953,6.774-2.576,11.1-2.576,5.153,0,11.719.665,11.719,7.48,0,3.491-1.87,5.4-4.28,6.151,2.742.374,6.483,2.119,6.483,7.106,0,7.854-8.062,8.685-13.173,8.685-3.533,0-11.844-.623-11.844-2.535Zm12.716,9.766c5.319,0,6.441-2.285,6.441-4.654,0-3.7-3.408-4.654-7.937-4.654a38.766,38.766,0,0,0-7.646.748v8.56Zm-9.142,2.992V27.93a38.36,38.36,0,0,0,8.394.873c3.657,0,9.392-.332,9.392-5.527,0-4.322-3.616-5.527-8.644-5.527Z" transform="translate(-470.4 -1.206)" fill="#1d1d1b"/>
  <path id="Tracciato_1365" data-name="Tracciato 1365" d="M664.864,51.542a20.612,20.612,0,0,1-6.815-1.039,1.447,1.447,0,0,1-1.081-1.454,1.4,1.4,0,0,1,1.912-1.414,19.926,19.926,0,0,0,5.859.914c3.491,0,6.275-1.413,6.275-5.652V39.823c-.208,2.12-2.452,4.031-5.984,4.031-4.779,0-7.854-2.493-7.854-8.727V27.605a1.728,1.728,0,0,1,3.449,0v7.439c0,4.031,2.244,5.527,5.195,5.527,2.992,0,5.111-1.579,5.194-5.4V27.605a1.567,1.567,0,0,1,1.7-1.62,1.612,1.612,0,0,1,1.7,1.62V42.9c0,6.483-4.364,8.644-9.558,8.644" transform="translate(-497.046 -12.974)" fill="#1d1d1b"/>
  <path id="Tracciato_1366" data-name="Tracciato 1366" d="M461.651,79.926a9.415,9.415,0,0,1-3.907-.71.9.9,0,0,1-.474-.77.914.914,0,0,1,1.243-.859,7.984,7.984,0,0,0,2.989.548c1.347,0,2.338-.31,2.338-1.258,0-2.205-6.156-.488-6.156-4.529,0-2.619,2.546-2.974,4.114-2.974A8.1,8.1,0,0,1,465.01,70a.878.878,0,0,1-.385,1.672,1.131,1.131,0,0,1-.429-.074,6.367,6.367,0,0,0-2.472-.415c-1.154,0-2.012.178-2.012,1.1,0,2.175,6.142.429,6.142,4.528,0,2.634-2.427,3.122-4.2,3.122" transform="translate(-397.34 -34.637)" fill="#1d1d1b"/>
  <path id="Tracciato_1367" data-name="Tracciato 1367" d="M502.732,70.6a1.032,1.032,0,0,1,1.051-.991,1.057,1.057,0,0,1,1.08.991v5.446c0,3-1.495,4.055-3.67,4.055a2.872,2.872,0,0,1-2.767-1.524,2.824,2.824,0,0,1-2.8,1.524C493.5,80.1,492,79.17,492,76.048V70.6a1.048,1.048,0,0,1,1.081-.991,1.032,1.032,0,0,1,1.051.991v5.446c0,1.48.621,2.086,1.613,2.086.962,0,1.628-.636,1.628-2.086V70.6a1.022,1.022,0,0,1,1.05-.991,1.044,1.044,0,0,1,1.066.991v5.446c0,1.45.666,2.086,1.628,2.086s1.613-.562,1.613-2.086Z" transform="translate(-414.681 -34.755)" fill="#1d1d1b"/>
  <path id="Tracciato_1368" data-name="Tracciato 1368" d="M536.075,70.616a1.051,1.051,0,0,1,2.1,0v8.347a1.051,1.051,0,0,1-2.1,0Z" transform="translate(-436.686 -34.755)" fill="#1d1d1b"/>
  <path id="Tracciato_1369" data-name="Tracciato 1369" d="M569.359,73.414c0-1.421-.666-1.969-1.6-1.969-.991,0-1.643.607-1.643,1.969V78.9a.959.959,0,0,1-1.081.991.949.949,0,0,1-1.05-.991v-5.49c0-1.362-.651-1.969-1.643-1.969-.962,0-1.6.592-1.6,1.969V78.9a.928.928,0,0,1-1.051.991.947.947,0,0,1-1.066-.991v-5.49c0-3.078,1.5-3.952,3.715-3.952a3.2,3.2,0,0,0,5.417,0c2.264,0,3.715,1.051,3.715,3.952V78.9a.947.947,0,0,1-1.066.991.928.928,0,0,1-1.051-.991Z" transform="translate(-447.947 -34.681)" fill="#1d1d1b"/>
  <path id="Tracciato_1370" data-name="Tracciato 1370" d="M373.783,54.945c-1.5,0-2.84-.925-4.136-1.82a14.173,14.173,0,0,0-1.522-.964,13.9,13.9,0,0,0-1.513.957c-1.3.9-2.643,1.827-4.145,1.827s-2.842-.927-4.139-1.823a14.071,14.071,0,0,0-1.519-.961,14.087,14.087,0,0,0-1.517.96c-1.3.9-2.64,1.824-4.141,1.824s-2.843-.927-4.14-1.824a10.89,10.89,0,0,0-1.636-1.008l-.021,0a16.149,16.149,0,0,0-1.437.921c-1.284.889-2.611,1.807-4.082,1.807a2.253,2.253,0,0,1-.119-4.5,10.716,10.716,0,0,0,1.634-1.008c1.3-.9,2.643-1.825,4.143-1.825s2.842.927,4.139,1.824a13.851,13.851,0,0,0,1.518.96,13.79,13.79,0,0,0,1.516-.959c1.3-.9,2.642-1.824,4.141-1.824s2.84.926,4.136,1.821a13.869,13.869,0,0,0,1.522.962,13.677,13.677,0,0,0,1.512-.956c1.3-.9,2.646-1.828,4.146-1.828s2.843.927,4.141,1.824a13.693,13.693,0,0,0,1.517.96,13.757,13.757,0,0,0,1.517-.96c1.3-.9,2.641-1.824,4.142-1.824a5.141,5.141,0,0,1,5.135,5.135,2.253,2.253,0,0,1-2.253,2.253h-.106a2.253,2.253,0,0,1-2.253-2.253.524.524,0,0,0-.434-.515,11.657,11.657,0,0,0-1.6.995c-1.3.9-2.644,1.827-4.144,1.827m-28.291-2.829h0Zm-5.657-1.783h0Z" transform="translate(-337.582 -23.717)" fill="#43c0f0"/>
  <path id="Tracciato_1371" data-name="Tracciato 1371" d="M373.783,73.542c-1.5,0-2.843-.927-4.14-1.823a13.934,13.934,0,0,0-1.518-.961,13.987,13.987,0,0,0-1.512.957c-1.3.9-2.644,1.827-4.146,1.827s-2.845-.927-4.141-1.824a13.986,13.986,0,0,0-1.517-.96,13.981,13.981,0,0,0-1.516.96c-1.3.9-2.639,1.824-4.141,1.824s-2.845-.928-4.141-1.825a14.11,14.11,0,0,0-1.517-.959,14.033,14.033,0,0,0-1.517.96c-1.3.9-2.639,1.824-4.141,1.824a2.253,2.253,0,0,1-2.253-2.253v-.106a2.254,2.254,0,0,1,2.135-2.25,10.876,10.876,0,0,0,1.635-1.008c1.3-.9,2.641-1.824,4.141-1.824s2.843.927,4.14,1.823a13.953,13.953,0,0,0,1.518.96,13.962,13.962,0,0,0,1.515-.958c1.3-.9,2.641-1.825,4.142-1.825s2.841.925,4.137,1.821a13.953,13.953,0,0,0,1.521.963,13.862,13.862,0,0,0,1.511-.955c1.3-.9,2.646-1.828,4.147-1.828s2.843.927,4.141,1.823a10.842,10.842,0,0,0,1.636,1.009,2.254,2.254,0,0,1,2.134,2.25v.106a2.253,2.253,0,0,1-2.253,2.253m0-4.612h0Zm-33.948,0h0Z" transform="translate(-337.582 -33.003)" fill="#43a001"/>
  <path id="Tracciato_1372" data-name="Tracciato 1372" d="M369.394,29.049a2.251,2.251,0,0,1-1.876-1c-2.1-3.138-4.057-5.816-6.79-6.816a10.247,10.247,0,0,0-2.422-.516,19.228,19.228,0,0,0-6.387.363,2.253,2.253,0,0,1-1-4.395,23.76,23.76,0,0,1,7.88-.447,14.589,14.589,0,0,1,3.475.763c4.337,1.586,7.026,5.608,8.989,8.544a2.254,2.254,0,0,1-1.871,3.506" transform="translate(-343.366 -8.035)" fill="#e5075b"/>
  <path id="Tracciato_1373" data-name="Tracciato 1373" d="M400.425,28.674a5.923,5.923,0,1,1,1-.085,6.024,6.024,0,0,1-1,.085m.016-7.323a1.434,1.434,0,0,0-.239.021,1.4,1.4,0,1,0,.239-.021" transform="translate(-366.011 -8.41)" fill="#1d1d1b"/>
  <path id="Tracciato_1374" data-name="Tracciato 1374" d="M441.743,46.567a2.253,2.253,0,0,1-2.253-2.253V2.253a2.253,2.253,0,0,1,4.507,0v42.06a2.253,2.253,0,0,1-2.253,2.253" transform="translate(-388.463)" fill="#ffd501"/>
</svg>
