<svg xmlns="http://www.w3.org/2000/svg" xmlns:xlink="http://www.w3.org/1999/xlink" width="221.417" height="221.415" viewBox="0 0 221.417 221.415">
  <defs>
    <filter id="Unione_44" x="0" y="0" width="221.417" height="221.415" filterUnits="userSpaceOnUse">
      <feOffset dy="6" input="SourceAlpha"/>
      <feGaussianBlur stdDeviation="14" result="blur"/>
      <feFlood flood-opacity="0.373"/>
      <feComposite operator="in" in2="blur"/>
      <feComposite in="SourceGraphic"/>
    </filter>
  </defs>
  <g id="Raggruppa_95" data-name="Raggruppa 95" transform="translate(25.683 35.999)">
    <g transform="matrix(1, 0, 0, 1, -25.68, -36)" filter="url(#Unione_44)">
      <path id="Unione_44-2" data-name="Unione 44" d="M54.862,136.021a68.357,68.357,0,0,1-24.569-10.339A68.918,68.918,0,0,1,5.4,95.451a68.3,68.3,0,0,1-4-12.9,69.372,69.372,0,0,1,0-27.693A68.321,68.321,0,0,1,11.735,30.293,68.885,68.885,0,0,1,41.965,5.4a68.525,68.525,0,0,1,12.9-4,69.421,69.421,0,0,1,27.694,0,68.359,68.359,0,0,1,24.569,10.338,68.913,68.913,0,0,1,24.894,30.23,68.258,68.258,0,0,1,4,12.9,69.328,69.328,0,0,1,0,27.693,68.3,68.3,0,0,1-10.337,24.568,68.913,68.913,0,0,1-30.23,24.894,68.4,68.4,0,0,1-12.9,4,69.421,69.421,0,0,1-27.694,0ZM43.637,9.356A64.619,64.619,0,1,0,68.71,4.294,64.548,64.548,0,0,0,43.637,9.356ZM59.262,84.216V54.059a3,3,0,0,1,4.789-2.409L84.361,66.729a3,3,0,0,1,0,4.818L64.051,86.624a2.96,2.96,0,0,1-1.777.6A3,3,0,0,1,59.262,84.216Z" transform="translate(42 36)" fill="#fff"/>
    </g>
  </g>
</svg>
